PathFileType	4	(X/Y/Z)	Kaydara	
DataRate	CameraRate	NumFrames	NumMarkers	Units	OrigDataRate	OrigDataStartFrame	OrigNumFrames	
120.00	120.00	9	30	mm	120.00	2492	2847	
Frame#	Time	reference			Pelvis			Left_hip			Left_knee			Left_ankle			Left_foot			Left_foot_End			Right_hip			Right_knee			Right_ankle			Right_foot			Right_foot_End			Spine1			Spine2			Spine3			Neck			Head			Head_End			Left_collar			Left_shoulder			Left_elbow			Left_wrist			Left_palm			Left_palm_End			Right_collar			Right_shoulder			Right_elbow			Right_wrist			Right_palm			Right_palm_End			
		X1	Y1	Z1	X2	Y2	Z2	X3	Y3	Z3	X4	Y4	Z4	X5	Y5	Z5	X6	Y6	Z6	X7	Y7	Z7	X8	Y8	Z8	X9	Y9	Z9	X10	Y10	Z10	X11	Y11	Z11	X12	Y12	Z12	X13	Y13	Z13	X14	Y14	Z14	X15	Y15	Z15	X16	Y16	Z16	X17	Y17	Z17	X18	Y18	Z18	X19	Y19	Z19	X20	Y20	Z20	X21	Y21	Z21	X22	Y22	Z22	X23	Y23	Z23	X24	Y24	Z24	X25	Y25	Z25	X26	Y26	Z26	X27	Y27	Z27	X28	Y28	Z28	X29	Y29	Z29	X30	Y30	Z30	

2492	20.758	0.00000	0.00000	0.00000	779.73000	986.32004	-996.95000	695.30727	928.36774	-991.64594	653.24024	544.30407	-1036.77213	783.90470	216.02943	-793.86560	729.73195	124.45554	-888.17170	729.73195	124.45554	-888.17170	803.56938	882.14751	-972.59669	826.55058	504.38455	-1049.26542	896.01179	117.65792	-895.59719	958.87260	44.29840	-1008.38857	958.87260	44.29840	-1008.38857	816.49789	1105.25060	-998.47146	860.87910	1235.97046	-996.29435	886.57603	1285.79079	-999.53668	995.33304	1468.09889	-990.25543	1034.37460	1563.00304	-994.97113	1034.37460	1563.00304	-994.97113	874.80165	1421.27406	-999.34776	782.32194	1515.93498	-997.72394	605.90997	1363.06512	-1104.84764	449.55996	1317.99419	-1315.41874	408.05808	1287.50815	-1387.66654	408.05808	1287.50815	-1387.66654	1007.35854	1350.27885	-962.84630	1127.35862	1338.38613	-939.47686	1047.45531	1094.78634	-995.37732	874.84585	1176.19794	-1185.32395	826.74804	1212.41788	-1251.87422	826.74804	1212.41788	-1251.87422 
2493	20.767	0.00000	0.00000	0.00000	780.58998	986.58997	-997.28996	696.18245	928.61061	-992.03999	653.18054	544.61180	-1036.83572	783.79571	215.76707	-794.67492	729.58421	124.16180	-888.92826	729.58421	124.16180	-888.92826	804.44618	882.42753	-972.90996	826.90351	504.54293	-1049.13315	896.17392	117.64598	-895.80790	958.92657	44.25863	-1008.64140	958.92657	44.25863	-1008.64140	817.32012	1105.53238	-998.79677	861.65333	1236.26794	-996.58429	887.33395	1286.09894	-999.79159	995.99783	1468.45238	-990.31230	1035.00400	1563.37499	-994.94866	1035.00400	1563.37499	-994.94866	875.49930	1421.57692	-999.57753	782.95564	1516.17590	-997.98770	606.83006	1363.07087	-1105.24669	450.60651	1317.61092	-1315.82802	409.16272	1286.99603	-1388.05468	409.16272	1286.99603	-1388.05468	1008.03941	1350.62943	-962.92272	1128.01599	1338.85486	-939.37347	1047.45132	1095.43103	-995.09090	873.91634	1176.46299	-1184.35534	825.37399	1212.47826	-1250.69359	825.37399	1212.47826	-1250.69359 
2494	20.775	0.00000	0.00000	0.00000	781.38000	986.79001	-997.79999	697.00325	928.75810	-992.63664	653.05735	544.81977	-1037.03281	783.56699	215.41776	-795.57356	729.32428	123.77620	-889.77364	729.32428	123.77620	-889.77364	805.27892	882.63522	-973.42916	827.09723	504.61413	-1049.15958	896.20495	117.59332	-896.07370	958.87088	44.17121	-1008.93278	958.87088	44.17121	-1008.93278	818.03935	1105.75505	-999.24294	862.28590	1236.51824	-996.93062	887.93435	1286.37014	-1000.06980	996.44051	1468.79902	-990.24175	1035.37818	1563.75728	-994.72118	1035.37818	1563.75728	-994.72118	875.99197	1421.83840	-999.72331	783.36074	1516.35195	-998.15280	607.52144	1362.98682	-1105.50986	451.38572	1317.14892	-1316.07440	410.02174	1286.41558	-1388.29651	410.02174	1286.41558	-1388.29651	1008.53805	1350.95564	-962.96498	1128.49942	1339.32429	-939.26755	1047.37279	1096.05521	-994.84530	872.84133	1176.63861	-1183.38358	824.10268	1212.56627	-1249.62533	824.10268	1212.56627	-1249.62533 
2495	20.783	0.00000	0.00000	0.00000	782.19002	986.94000	-998.30002	697.86006	928.83001	-993.25161	652.97746	544.94722	-1037.18867	783.31766	214.98302	-796.40644	729.03591	123.31478	-890.55806	729.03591	123.31478	-890.55806	806.15661	882.79636	-973.94800	827.32098	504.65253	-1049.25001	896.32358	117.57593	-896.25780	958.91655	44.12743	-1009.14019	958.91655	44.12743	-1009.14019	818.74379	1105.93859	-999.65311	862.86348	1236.74216	-997.20545	888.46354	1286.62430	-1000.25820	996.75228	1469.15874	-990.00157	1035.58848	1564.16786	-994.27900	1035.58848	1564.16786	-994.27900	876.36794	1422.07826	-999.70149	783.61071	1516.46832	-998.14023	608.13094	1362.75942	-1105.59388	452.17662	1316.34590	-1316.16675	410.88422	1285.43061	-1388.35215	410.88422	1285.43061	-1388.35215	1008.95095	1351.28405	-962.90573	1128.89657	1339.78672	-939.06360	1047.42166	1096.61526	-994.55902	872.02910	1176.61990	-1182.54388	823.35176	1212.57473	-1248.81596	823.35176	1212.57473	-1248.81596 
2496	20.792	0.00000	0.00000	0.00000	782.95998	987.07001	-998.70003	698.68278	928.87362	-993.76712	652.90054	545.04785	-1037.27199	782.97612	214.50999	-797.13433	728.64704	122.82695	-891.24424	728.64704	122.82695	-891.24424	807.00646	882.93520	-974.38904	827.44287	504.64397	-1049.14982	896.40935	117.54651	-896.19410	958.94073	44.09077	-1009.10591	958.94073	44.09077	-1009.10591	819.39733	1106.10546	-999.94565	863.38041	1236.95223	-997.35211	888.92835	1286.86599	-1000.32353	997.00011	1469.50744	-989.69018	1035.73019	1564.56796	-993.78370	1035.73019	1564.56796	-993.78370	876.67645	1422.30483	-999.54818	783.79481	1516.57244	-997.98567	608.63851	1362.54429	-1105.50989	452.74085	1315.58943	-1316.00469	411.47313	1284.50133	-1388.12996	411.47313	1284.50133	-1388.12996	1009.31668	1351.60167	-962.78356	1129.25298	1340.22644	-938.83624	1047.57415	1097.09761	-994.21854	871.50013	1176.83253	-1181.68021	822.23111	1212.52791	-1247.65465	822.23111	1212.52791	-1247.65465 
2497	20.800	0.00000	0.00000	0.00000	783.83003	987.16003	-999.19998	699.60968	928.87258	-994.37258	652.99841	545.10205	-1037.48260	782.67650	213.98924	-797.92273	728.31339	122.29506	-892.00214	728.31339	122.29506	-892.00214	807.96594	883.03388	-974.94059	827.45219	504.61557	-1049.31093	896.32339	117.52064	-896.30588	958.79107	44.05992	-1009.24970	958.79107	44.05992	-1009.24970	820.14430	1106.23419	-1000.33647	863.98542	1237.12574	-997.60303	889.47993	1287.07109	-1000.50167	997.33496	1469.82141	-989.54337	1035.95881	1564.93179	-993.47945	1035.95881	1564.93179	-993.47945	877.07186	1422.49454	-999.54362	784.07225	1516.64627	-998.01180	609.25285	1362.24221	-1105.54515	453.44232	1314.74441	-1315.98264	412.19575	1283.49341	-1388.04960	412.19575	1283.49341	-1388.04960	1009.77012	1351.89213	-962.79478	1129.68880	1340.62434	-938.70880	1047.92789	1097.50805	-994.02501	871.24551	1177.59989	-1180.76074	823.36147	1213.25088	-1247.77080	823.36147	1213.25088	-1247.77080 
2498	20.808	0.00000	0.00000	0.00000	784.81003	987.26997	-999.59999	700.65537	928.88114	-994.85266	653.33331	545.15488	-1037.58073	782.58697	213.45375	-798.60609	728.17963	121.75050	-892.65107	728.17963	121.75050	-892.65107	809.05829	883.14939	-975.42888	827.72093	504.61244	-1049.40562	896.46824	117.52454	-896.32710	958.87955	44.06301	-1009.30157	958.87955	44.06301	-1009.30157	820.98745	1106.38687	-1000.61550	864.67480	1237.32676	-997.73897	890.11459	1287.30378	-1000.57160	997.76705	1470.15655	-989.33381	1036.29122	1565.31285	-993.13462	1036.29122	1565.31285	-993.13462	877.56037	1422.71256	-999.45670	784.47930	1516.78314	-997.88721	609.93761	1362.08350	-1105.44687	454.13618	1314.45747	-1315.86212	412.90310	1283.03359	-1387.86158	412.90310	1283.03359	-1387.86158	1010.31450	1352.20846	-962.72094	1130.22298	1341.02419	-938.54543	1048.48165	1097.89615	-993.83894	871.84315	1178.16424	-1180.54049	824.58070	1213.69265	-1248.05504	824.58070	1213.69265	-1248.05504 
2499	20.817	0.00000	0.00000	0.00000	785.50003	987.41997	-1000.10002	701.40094	928.94707	-995.40304	653.39376	545.26433	-1037.75595	782.12569	212.97384	-799.31906	727.66467	121.26746	-893.32990	727.66467	121.26746	-893.32990	809.84810	883.29982	-976.02757	827.93960	504.63706	-1049.50061	896.42293	117.53205	-896.34704	958.76422	44.07688	-1009.36428	958.76422	44.07688	-1009.36428	821.56461	1106.57196	-1001.00592	865.12678	1237.55076	-998.00490	890.52246	1287.55323	-1000.78366	998.01169	1470.48814	-989.32243	1036.45741	1565.68028	-993.01848	1036.45741	1565.68028	-993.01848	877.85189	1422.95024	-999.56056	784.74656	1516.99535	-997.90610	610.46955	1362.00456	-1105.47580	454.63877	1314.39000	-1315.87191	413.42534	1282.79506	-1387.80774	413.42534	1282.79506	-1387.80774	1010.64340	1352.52803	-962.80284	1130.54586	1341.38394	-938.57897	1048.87327	1098.25823	-993.98416	872.45014	1179.02738	-1180.67326	825.01870	1214.59579	-1248.04810	825.01870	1214.59579	-1248.04810 
2500	20.825	0.00000	0.00000	0.00000	786.05003	987.59003	-1000.50003	702.00029	929.04411	-995.82935	653.50374	545.37988	-1037.79065	781.68170	212.51036	-799.86351	727.18154	120.79474	-893.84266	727.18154	120.79474	-893.84266	810.49211	883.46530	-976.54292	828.52479	504.77563	-1049.89163	896.79081	117.61094	-896.79192	959.08307	44.16537	-1009.84244	959.08307	44.16537	-1009.84244	822.01752	1106.77213	-1001.29910	865.47644	1237.78227	-998.17185	890.83532	1287.80656	-1000.89332	998.18285	1470.80859	-989.17830	1036.56318	1566.03159	-992.75714	1036.56318	1566.03159	-992.75714	878.06581	1423.19321	-999.55728	784.93934	1517.21560	-997.80458	610.94616	1361.96020	-1105.45213	455.20404	1313.91795	-1315.81666	414.02626	1282.20684	-1387.72177	414.02626	1282.20684	-1387.72177	1010.87836	1352.83354	-962.75581	1130.77487	1341.70797	-938.49401	1049.28759	1098.59383	-994.22190	873.41906	1179.70092	-1181.28739	825.69219	1215.41896	-1248.37383	825.69219	1215.41896	-1248.37383 
